<svg width="51" height="39" viewBox="0 0 51 39" fill="none" xmlns="http://www.w3.org/2000/svg">
<line x1="1" y1="-4.37114e-08" x2="1" y2="32" stroke="white" stroke-width="2" stroke-dasharray="2 2"/>
<line x1="32" y1="31" y2="31" stroke="white" stroke-width="2" stroke-dasharray="2 2"/>
<g clip-path="url(#clip0_528_7)">
<path d="M42 39C44.3869 39 46.6761 38.0518 48.364 36.364C50.0518 34.6761 51 32.3869 51 30C51 27.6131 50.0518 25.3239 48.364 23.636C46.6761 21.9482 44.3869 21 42 21C39.6131 21 37.3239 21.9482 35.636 23.636C33.9482 25.3239 33 27.6131 33 30C33 32.3869 33.9482 34.6761 35.636 36.364C37.3239 38.0518 39.6131 39 42 39ZM42 26.625C42.8951 26.625 43.7536 26.9806 44.3865 27.6135C45.0194 28.2464 45.375 29.1049 45.375 30C45.375 30.8951 45.0194 31.7536 44.3865 32.3865C43.7536 33.0194 42.8951 33.375 42 33.375C41.1049 33.375 40.2464 33.0194 39.6135 32.3865C38.9806 31.7536 38.625 30.8951 38.625 30C38.625 29.1049 38.9806 28.2464 39.6135 27.6135C40.2464 26.9806 41.1049 26.625 42 26.625Z" fill="#224870"/>
</g>
<defs>
<clipPath id="clip0_528_7">
<rect width="18" height="18" fill="white" transform="translate(33 21)"/>
</clipPath>
</defs>
</svg>
