<svg width="52" height="42" viewBox="0 0 52 42" fill="none" xmlns="http://www.w3.org/2000/svg">
<path d="M42.9258 19.5C44.9297 16.9922 49.5 10.9141 49.5 7.5C49.5 3.35938 46.1406 0 42 0C37.8594 0 34.5 3.35938 34.5 7.5C34.5 10.9141 39.0703 16.9922 41.0742 19.5C41.5547 20.0977 42.4453 20.0977 42.9258 19.5ZM42 5C42.663 5 43.2989 5.26339 43.7678 5.73223C44.2366 6.20107 44.5 6.83696 44.5 7.5C44.5 8.16304 44.2366 8.79893 43.7678 9.26777C43.2989 9.73661 42.663 10 42 10C41.337 10 40.7011 9.73661 40.2322 9.26777C39.7634 8.79893 39.5 8.16304 39.5 7.5C39.5 6.83696 39.7634 6.20107 40.2322 5.73223C40.7011 5.26339 41.337 5 42 5Z" fill="#224870"/>
<line x1="1" y1="10" x2="0.999999" y2="42" stroke="white" stroke-width="2" stroke-dasharray="2 2"/>
<line x1="32" y1="11" y2="11" stroke="white" stroke-width="2" stroke-dasharray="2 2"/>
</svg>
