<svg width="162" height="24" viewBox="0 0 162 24" fill="none" xmlns="http://www.w3.org/2000/svg">
<path d="M161.061 13.0607C161.646 12.4749 161.646 11.5251 161.061 10.9393L151.515 1.3934C150.929 0.807611 149.979 0.807611 149.393 1.3934C148.808 1.97919 148.808 2.92893 149.393 3.51472L157.879 12L149.393 20.4853C148.808 21.0711 148.808 22.0208 149.393 22.6066C149.979 23.1924 150.929 23.1924 151.515 22.6066L161.061 13.0607ZM0 13.5H2V10.5H0V13.5ZM6 13.5H10V10.5H6V13.5ZM14 13.5H18V10.5H14V13.5ZM22 13.5H26V10.5H22V13.5ZM30 13.5H34V10.5H30V13.5ZM38 13.5H42V10.5H38V13.5ZM46 13.5H50V10.5H46V13.5ZM54 13.5H58V10.5H54V13.5ZM62 13.5H66V10.5H62V13.5ZM70 13.5H74V10.5H70V13.5ZM78 13.5H82V10.5H78V13.5ZM86 13.5H90V10.5H86V13.5ZM94 13.5H98V10.5H94V13.5ZM102 13.5H106V10.5H102V13.5ZM110 13.5H114V10.5H110V13.5ZM118 13.5H122V10.5H118V13.5ZM126 13.5H130V10.5H126V13.5ZM134 13.5H138V10.5H134V13.5ZM142 13.5H146V10.5H142V13.5ZM150 13.5H154V10.5H150V13.5ZM158 13.5H160V10.5H158V13.5ZM161.061 13.0607C161.646 12.4749 161.646 11.5251 161.061 10.9393L151.515 1.3934C150.929 0.807611 149.979 0.807611 149.393 1.3934C148.808 1.97919 148.808 2.92893 149.393 3.51472L157.879 12L149.393 20.4853C148.808 21.0711 148.808 22.0208 149.393 22.6066C149.979 23.1924 150.929 23.1924 151.515 22.6066L161.061 13.0607ZM0 13.5H2V10.5H0V13.5ZM6 13.5H10V10.5H6V13.5ZM14 13.5H18V10.5H14V13.5ZM22 13.5H26V10.5H22V13.5ZM30 13.5H34V10.5H30V13.5ZM38 13.5H42V10.5H38V13.5ZM46 13.5H50V10.5H46V13.5ZM54 13.5H58V10.5H54V13.5ZM62 13.5H66V10.5H62V13.5ZM70 13.5H74V10.5H70V13.5ZM78 13.5H82V10.5H78V13.5ZM86 13.5H90V10.5H86V13.5ZM94 13.5H98V10.5H94V13.5ZM102 13.5H106V10.5H102V13.5ZM110 13.5H114V10.5H110V13.5ZM118 13.5H122V10.5H118V13.5ZM126 13.5H130V10.5H126V13.5ZM134 13.5H138V10.5H134V13.5ZM142 13.5H146V10.5H142V13.5ZM150 13.5H154V10.5H150V13.5ZM158 13.5H160V10.5H158V13.5Z" fill="#FDA43E"/>
</svg>
