<svg width="51" height="61" viewBox="0 0 51 61" fill="none" xmlns="http://www.w3.org/2000/svg">
<line x1="1" y1="-4.37114e-08" x2="1" y2="61" stroke="white" stroke-width="2" stroke-dasharray="2 2"/>
<line x1="32" y1="29" x2="3" y2="29" stroke="white" stroke-width="2" stroke-dasharray="2 2"/>
<g clip-path="url(#clip0_524_4)">
<path d="M42 37C44.3869 37 46.6761 36.0518 48.364 34.364C50.0518 32.6761 51 30.3869 51 28C51 25.6131 50.0518 23.3239 48.364 21.636C46.6761 19.9482 44.3869 19 42 19C39.6131 19 37.3239 19.9482 35.636 21.636C33.9482 23.3239 33 25.6131 33 28C33 30.3869 33.9482 32.6761 35.636 34.364C37.3239 36.0518 39.6131 37 42 37ZM42 24.625C42.8951 24.625 43.7536 24.9806 44.3865 25.6135C45.0194 26.2464 45.375 27.1049 45.375 28C45.375 28.8951 45.0194 29.7536 44.3865 30.3865C43.7536 31.0194 42.8951 31.375 42 31.375C41.1049 31.375 40.2464 31.0194 39.6135 30.3865C38.9806 29.7536 38.625 28.8951 38.625 28C38.625 27.1049 38.9806 26.2464 39.6135 25.6135C40.2464 24.9806 41.1049 24.625 42 24.625Z" fill="#224870"/>
</g>
<defs>
<clipPath id="clip0_524_4">
<rect width="18" height="18" fill="white" transform="translate(33 19)"/>
</clipPath>
</defs>
</svg>
